<svg width="1573" height="1279" viewBox="0 0 1573 1279" fill="none" xmlns="http://www.w3.org/2000/svg">
<path fill-rule="evenodd" clip-rule="evenodd" d="M133 1192.4L173 1148.4C213 1105.4 293 1019.4 373 1026.4C453 1033.4 533 1134.4 613 1148.4C693 1163.4 773 1091.4 853 1084.4C933 1076.4 1013 1134.4 1093 1148.4C1173 1163.4 1253 1134.4 1333 1127.4C1413 1120.4 1493 1134.4 1533 1141.4L1573 1148.4V1278.4H1533C1493 1278.4 1413 1278.4 1333 1278.4C1253 1278.4 1173 1278.4 1093 1278.4C1013 1278.4 933 1278.4 853 1278.4C773 1278.4 693 1278.4 613 1278.4C533 1278.4 453 1278.4 373 1278.4C293 1278.4 213 1278.4 173 1278.4H133V1192.4Z" fill="#0099FF"/>
<path fill-rule="evenodd" clip-rule="evenodd" d="M1434.34 84.8105L1374.01 87.8522C1313.68 90.8939 1193.02 96.9774 1080.64 152.369C968.269 207.761 864.183 312.461 744.682 325.448C625.182 338.435 490.101 258.722 371.761 278.611C253.421 298.501 151.821 417.994 100.939 477.247L50.056 536.501L-1.63317e-05 238.678L59.1701 228.733C118.34 218.788 236.68 198.898 355.02 179.008C473.361 159.119 591.701 139.229 710.041 119.339C828.381 99.4491 946.721 79.5593 1065.06 59.6695C1183.4 39.7797 1301.74 19.8898 1360.91 9.94492L1420.08 9.77516e-06L1434.34 84.8105Z" fill="#0099FF"/>
</svg>
